<svg data-v-423bf9ae="" xmlns="http://www.w3.org/2000/svg" viewBox="0 0 557 90" class="iconLeftSlogan"><!----><!----><!----><g data-v-423bf9ae="" id="81fe6967-3963-4544-9b16-1d013accab9e" fill="white" transform="matrix(6.7491560948100275,0,0,6.7491560948100275,107.50281287745003,-38.47018892995496)"><path d="M0.37 10.27L0.37 10.27L0.37 10.27Q0.37 9.64 0.54 9.00L0.54 9.00L0.54 9.00Q0.71 8.36 1.06 7.78L1.06 7.78L1.06 7.78Q1.41 7.21 1.89 6.75L1.89 6.75L1.89 6.75Q2.37 6.30 3.03 6.04L3.03 6.04L3.03 6.04Q3.70 5.77 4.46 5.77L4.46 5.77L4.46 5.77Q5.20 5.77 5.90 5.94L5.90 5.94L5.90 5.94Q6.60 6.11 7.08 6.47L7.08 6.47L6.87 8.64L6.56 8.61L6.35 6.99L6.35 6.99Q6.08 6.65 5.54 6.41L5.54 6.41L5.54 6.41Q4.99 6.17 4.23 6.17L4.23 6.17L4.23 6.17Q2.82 6.17 1.99 7.27L1.99 7.27L1.99 7.27Q1.15 8.37 1.15 10.07L1.15 10.07L1.15 10.07Q1.15 10.69 1.26 11.25L1.26 11.25L1.26 11.25Q1.37 11.81 1.62 12.34L1.62 12.34L1.62 12.34Q1.87 12.87 2.25 13.25L2.25 13.25L2.25 13.25Q2.63 13.63 3.22 13.86L3.22 13.86L3.22 13.86Q3.81 14.09 4.54 14.09L4.54 14.09L4.54 14.09Q5.60 14.09 6.32 13.59L6.32 13.59L6.33 11.03L4.68 10.86L4.72 10.60L8.00 10.60L7.96 10.86L7.04 11.01L7.04 13.86L7.04 13.86Q6.39 14.25 5.65 14.39L5.65 14.39L5.65 14.39Q4.92 14.53 3.83 14.53L3.83 14.53L3.83 14.53Q3.12 14.53 2.49 14.23L2.49 14.23L2.49 14.23Q1.86 13.93 1.39 13.39L1.39 13.39L1.39 13.39Q0.92 12.85 0.65 12.04L0.65 12.04L0.65 12.04Q0.37 11.23 0.37 10.27ZM9.37 13.04L9.37 13.04L9.37 13.04Q9.37 13.47 9.63 13.79L9.63 13.79L9.63 13.79Q9.89 14.10 10.33 14.10L10.33 14.10L10.33 14.10Q10.80 14.10 11.20 13.83L11.20 13.83L11.20 13.83Q11.60 13.56 11.85 13.13L11.85 13.13L11.85 11.44L11.85 11.44Q11.40 11.51 11.06 11.58L11.06 11.58L11.06 11.58Q10.73 11.66 10.39 11.78L10.39 11.78L10.39 11.78Q10.06 11.90 9.85 12.06L9.85 12.06L9.85 12.06Q9.64 12.22 9.51 12.47L9.51 12.47L9.51 12.47Q9.37 12.72 9.37 13.04ZM8.69 13.24L8.69 13.24L8.69 13.24Q8.69 12.37 9.48 11.80L9.48 11.80L9.48 11.80Q10.28 11.23 11.85 11.14L11.85 11.14L11.85 10.87L11.85 10.87Q11.85 9.74 11.58 9.25L11.58 9.25L11.58 9.25Q11.31 8.75 10.55 8.75L10.55 8.75L10.55 8.75Q10.03 8.75 9.80 9.13L9.80 9.13L9.80 9.13Q9.57 9.52 9.48 10.23L9.48 10.23L9.48 10.23Q9.24 10.23 9.08 10.11L9.08 10.11L9.08 10.11Q8.92 9.99 8.92 9.78L8.92 9.78L8.92 9.78Q8.92 9.26 9.56 8.83L9.56 8.83L9.56 8.83Q10.20 8.40 10.91 8.40L10.91 8.40L10.91 8.40Q11.70 8.40 12.09 8.91L12.09 8.91L12.09 8.91Q12.47 9.43 12.47 10.51L12.47 10.51L12.47 12.83L12.47 12.83Q12.47 13.03 12.47 13.14L12.47 13.14L12.47 13.14Q12.48 13.24 12.49 13.40L12.49 13.40L12.49 13.40Q12.51 13.56 12.55 13.64L12.55 13.64L12.55 13.64Q12.58 13.73 12.65 13.83L12.65 13.83L12.65 13.83Q12.71 13.92 12.82 13.98L12.82 13.98L12.82 13.98Q12.93 14.03 13.07 14.05L13.07 14.05L13.52 14.14L13.49 14.38L13.49 14.38Q13.17 14.52 12.80 14.52L12.80 14.52L12.80 14.52Q12.39 14.52 12.17 14.25L12.17 14.25L12.17 14.25Q11.94 13.99 11.94 13.60L11.94 13.60L11.94 13.51L11.91 13.51L11.91 13.51Q11.78 13.88 11.27 14.23L11.27 14.23L11.27 14.23Q10.76 14.57 10.11 14.57L10.11 14.57L10.11 14.57Q9.54 14.57 9.11 14.21L9.11 14.21L9.11 14.21Q8.69 13.84 8.69 13.24ZM17.49 14.40L14.24 14.40L14.27 14.19L15.34 14.01L15.34 9.02L14.27 8.83L14.29 8.63L15.88 8.50L15.95 8.56L15.89 10.34L15.95 10.34L15.95 10.34Q16.18 9.46 16.63 8.91L16.63 8.91L16.63 8.91Q17.07 8.37 17.62 8.37L17.62 8.37L17.62 8.37Q17.94 8.37 18.13 8.51L18.13 8.51L18.13 8.51Q18.32 8.66 18.32 8.89L18.32 8.89L18.32 8.89Q18.32 9.01 18.23 9.15L18.23 9.15L18.23 9.15Q18.14 9.29 18.01 9.38L18.01 9.38L18.01 9.38Q17.83 9.17 17.67 9.09L17.67 9.09L17.67 9.09Q17.51 9.00 17.29 9.00L17.29 9.00L17.29 9.00Q17.01 9.00 16.79 9.22L16.79 9.22L16.79 9.22Q16.56 9.44 16.41 9.82L16.41 9.82L16.41 9.82Q16.26 10.19 16.16 10.61L16.16 10.61L16.16 10.61Q16.06 11.02 15.99 11.50L15.99 11.50L15.99 14.02L17.55 14.15L17.49 14.40ZM19.74 11.38L19.74 11.38L19.74 11.38Q19.74 12.63 20.19 13.35L20.19 13.35L20.19 13.35Q20.64 14.08 21.56 14.08L21.56 14.08L21.56 14.08Q21.98 14.08 22.47 13.78L22.47 13.78L22.47 13.78Q22.96 13.49 23.24 13.10L23.24 13.10L23.24 9.58L23.24 9.58Q22.94 9.20 22.50 9.00L22.50 9.00L22.50 9.00Q22.06 8.80 21.55 8.80L21.55 8.80L21.55 8.80Q20.82 8.80 20.28 9.48L20.28 9.48L20.28 9.48Q19.74 10.15 19.74 11.38ZM19.05 11.76L19.05 11.76L19.05 11.76Q19.05 10.99 19.29 10.35L19.29 10.35L19.29 10.35Q19.52 9.71 19.92 9.29L19.92 9.29L19.92 9.29Q20.32 8.87 20.83 8.63L20.83 8.63L20.83 8.63Q21.34 8.40 21.90 8.40L21.90 8.40L21.90 8.40Q22.23 8.40 22.64 8.51L22.64 8.51L22.64 8.51Q23.05 8.62 23.22 8.76L23.22 8.76L23.29 8.76L23.18 7.83L23.18 6.26L22.13 6.05L22.18 5.84L23.80 5.70L23.86 5.77L23.86 12.83L23.86 12.83Q23.86 13.14 23.90 13.36L23.90 13.36L23.90 13.36Q23.94 13.58 23.99 13.70L23.99 13.70L23.99 13.70Q24.05 13.82 24.14 13.90L24.14 13.90L24.14 13.90Q24.24 13.99 24.30 14.01L24.30 14.01L24.30 14.01Q24.36 14.03 24.47 14.05L24.47 14.05L24.88 14.14L24.83 14.39L24.83 14.39Q24.51 14.53 24.19 14.53L24.19 14.53L24.19 14.53Q23.73 14.53 23.52 14.27L23.52 14.27L23.52 14.27Q23.30 14 23.30 13.55L23.30 13.55L23.30 13.50L23.24 13.50L23.24 13.50Q22.91 13.95 22.37 14.25L22.37 14.25L22.37 14.25Q21.84 14.55 21.18 14.55L21.18 14.55L21.18 14.55Q20.24 14.55 19.65 13.82L19.65 13.82L19.65 13.82Q19.05 13.08 19.05 11.76ZM26.31 11.03L26.31 11.03L28.96 10.88L28.96 10.88Q29.03 10.75 29.03 10.26L29.03 10.26L29.03 10.26Q29.03 9.65 28.67 9.23L28.67 9.23L28.67 9.23Q28.31 8.80 27.80 8.80L27.80 8.80L27.80 8.80Q27.13 8.80 26.72 9.39L26.72 9.39L26.72 9.39Q26.31 9.98 26.31 11.03ZM25.59 11.59L25.59 11.59L25.59 11.59Q25.59 10.12 26.34 9.27L26.34 9.27L26.34 9.27Q27.09 8.42 28.14 8.42L28.14 8.42L28.14 8.42Q28.92 8.42 29.32 8.90L29.32 8.90L29.32 8.90Q29.72 9.37 29.72 10.42L29.72 10.42L29.72 10.42Q29.72 10.82 29.60 11.31L29.60 11.31L26.30 11.36L26.30 11.36Q26.30 11.94 26.41 12.42L26.41 12.42L26.41 12.42Q26.53 12.89 26.77 13.26L26.77 13.26L26.77 13.26Q27.01 13.62 27.40 13.83L27.40 13.83L27.40 13.83Q27.79 14.03 28.31 14.03L28.31 14.03L28.31 14.03Q29.22 14.03 29.79 13.46L29.79 13.46L29.91 13.69L29.91 13.69Q29.60 14.10 29.09 14.35L29.09 14.35L29.09 14.35Q28.57 14.59 27.92 14.59L27.92 14.59L27.92 14.59Q26.89 14.59 26.24 13.83L26.24 13.83L26.24 13.83Q25.59 13.07 25.59 11.59ZM33.27 14.40L30.60 14.40L30.65 14.18L31.71 14.01L31.71 9.01L30.65 8.83L30.67 8.63L32.27 8.50L32.31 8.56L32.28 9.50L32.33 9.50L32.33 9.50Q32.62 9.11 33.25 8.75L33.25 8.75L33.25 8.75Q33.87 8.38 34.52 8.38L34.52 8.38L34.52 8.38Q35.18 8.38 35.61 8.87L35.61 8.87L35.61 8.87Q36.03 9.36 36.03 10.40L36.03 10.40L36.03 14.01L36.97 14.14L36.95 14.40L34.37 14.40L34.41 14.18L35.38 14.01L35.38 10.58L35.38 10.58Q35.38 9.73 35.06 9.32L35.06 9.32L35.06 9.32Q34.73 8.92 34.25 8.92L34.25 8.92L34.25 8.92Q33.67 8.92 33.29 9.12L33.29 9.12L33.29 9.12Q32.91 9.31 32.34 9.85L32.34 9.85L32.34 14.01L33.31 14.15L33.27 14.40ZM40.61 10.27L40.61 10.27L40.61 10.27Q40.61 9.64 40.78 9.00L40.78 9.00L40.78 9.00Q40.95 8.36 41.30 7.78L41.30 7.78L41.30 7.78Q41.64 7.21 42.12 6.75L42.12 6.75L42.12 6.75Q42.60 6.30 43.27 6.04L43.27 6.04L43.27 6.04Q43.93 5.77 44.69 5.77L44.69 5.77L44.69 5.77Q45.43 5.77 46.14 5.94L46.14 5.94L46.14 5.94Q46.84 6.11 47.31 6.47L47.31 6.47L47.11 8.64L46.80 8.61L46.59 6.99L46.59 6.99Q46.32 6.65 45.77 6.41L45.77 6.41L45.77 6.41Q45.23 6.17 44.47 6.17L44.47 6.17L44.47 6.17Q43.06 6.17 42.22 7.27L42.22 7.27L42.22 7.27Q41.38 8.37 41.38 10.07L41.38 10.07L41.38 10.07Q41.38 10.69 41.49 11.25L41.49 11.25L41.49 11.25Q41.60 11.81 41.86 12.34L41.86 12.34L41.86 12.34Q42.11 12.87 42.49 13.25L42.49 13.25L42.49 13.25Q42.87 13.63 43.46 13.86L43.46 13.86L43.46 13.86Q44.04 14.09 44.78 14.09L44.78 14.09L44.78 14.09Q45.83 14.09 46.55 13.59L46.55 13.59L46.57 11.03L44.92 10.86L44.96 10.60L48.24 10.60L48.19 10.86L47.28 11.01L47.28 13.86L47.28 13.86Q46.63 14.25 45.89 14.39L45.89 14.39L45.89 14.39Q45.15 14.53 44.06 14.53L44.06 14.53L44.06 14.53Q43.36 14.53 42.73 14.23L42.73 14.23L42.73 14.23Q42.10 13.93 41.63 13.39L41.63 13.39L41.63 13.39Q41.16 12.85 40.88 12.04L40.88 12.04L40.88 12.04Q40.61 11.23 40.61 10.27ZM51.65 14.40L48.88 14.40L48.95 14.18L49.99 13.99L49.99 6.23L48.95 6.04L48.95 5.84L50.56 5.71L50.62 5.77L50.62 13.99L51.73 14.17L51.65 14.40ZM53.15 11.20L53.15 11.20L53.15 11.20Q53.15 12.44 53.73 13.29L53.73 13.29L53.73 13.29Q54.30 14.14 55.24 14.14L55.24 14.14L55.24 14.14Q55.98 14.14 56.44 13.44L56.44 13.44L56.44 13.44Q56.90 12.74 56.90 11.66L56.90 11.66L56.90 11.66Q56.90 10.94 56.66 10.30L56.66 10.30L56.66 10.30Q56.42 9.67 55.95 9.25L55.95 9.25L55.95 9.25Q55.47 8.84 54.87 8.84L54.87 8.84L54.87 8.84Q54.11 8.84 53.63 9.51L53.63 9.51L53.63 9.51Q53.15 10.19 53.15 11.20ZM52.43 11.69L52.43 11.69L52.43 11.69Q52.43 10.18 53.21 9.28L53.21 9.28L53.21 9.28Q53.99 8.39 55.17 8.39L55.17 8.39L55.17 8.39Q55.90 8.39 56.46 8.81L56.46 8.81L56.46 8.81Q57.03 9.23 57.32 9.92L57.32 9.92L57.32 9.92Q57.61 10.60 57.61 11.41L57.61 11.41L57.61 11.41Q57.61 12.81 56.84 13.70L56.84 13.70L56.84 13.70Q56.08 14.58 55.00 14.58L55.00 14.58L55.00 14.58Q53.89 14.58 53.16 13.79L53.16 13.79L53.16 13.79Q52.43 13.00 52.43 11.69ZM59.11 8.99L58.31 8.82L58.34 8.58L60.74 8.58L60.70 8.80L59.79 8.98L60.67 11.94L61.02 13.26L62.21 9.02L62.82 8.90L63.76 12.04L64.07 13.36L65.33 8.99L64.30 8.82L64.33 8.58L66.58 8.58L66.55 8.80L65.80 8.98L64.23 14.46L63.88 14.55L62.45 9.80L61.16 14.46L60.79 14.55L59.11 8.99Z"></path></g><!----><g data-v-423bf9ae="" id="a29c5f25-001a-4453-a947-df5cca156a21" transform="matrix(2.8125,0,0,2.8125,0,0)" stroke="none" fill="white"><path d="M16 32c8.837 0 16-7.163 16-16S24.837 0 16 0 0 7.163 0 16s7.163 16 16 16zM14.817 6.421h2v8.886h8.887v2H14.817V6.421zm-5.959.437h2v14.283h14.283v2H8.858V6.858z"></path></g><!----><g data-v-423bf9ae="" id="34740046-2c21-422e-bd29-df954b08dd2a" fill="white" transform="matrix(1.3105407166450955,0,0,1.3105407166450955,109.50200151758241,56.409120047927026)"><path d="M0.87 3.64L0.38 3.64L0.39 3.08L3.98 3.08L3.98 3.64L3.34 3.64L3.34 3.64Q2.97 3.64 2.85 3.72L2.85 3.72L2.85 3.72Q2.74 3.80 2.74 4.16L2.74 4.16L2.74 11.22L2.74 11.22Q2.74 11.57 2.83 11.67L2.83 11.67L2.83 11.67Q2.91 11.77 3.21 11.77L3.21 11.77L3.21 11.77Q6.08 11.74 6.73 11.63L6.73 11.63L6.73 11.63Q6.95 11.61 7.03 11.39L7.03 11.39L7.03 11.39Q7.11 11.17 7.31 10.05L7.31 10.05L7.80 10.08L7.33 12.41L0.57 12.41L0.56 11.87L0.95 11.87L0.95 11.87Q1.46 11.87 1.52 11.80L1.52 11.80L1.52 11.80Q1.61 11.72 1.61 11.33L1.61 11.33L1.61 4.09L1.61 4.09Q1.61 3.80 1.46 3.72L1.46 3.72L1.46 3.72Q1.31 3.64 0.87 3.64L0.87 3.64ZM15.54 12.41L15.53 11.87L15.70 11.87L15.70 11.87Q16.09 11.87 16.22 11.73L16.22 11.73L16.22 11.73Q16.34 11.57 16.68 10.83L16.68 10.83L17.59 8.82L18.16 7.53L18.16 7.53Q18.43 6.97 18.47 6.86L18.47 6.86L18.47 6.86Q18.54 6.70 18.59 6.60L18.59 6.60L18.59 6.60Q18.64 6.51 18.66 6.45L18.66 6.45L18.75 6.21L20.18 2.74L20.47 2.74L20.47 2.74Q21.33 4.98 23.52 10.25L23.52 10.25L23.52 10.25Q23.97 11.34 24.16 11.64L24.16 11.64L24.16 11.64Q24.29 11.87 24.73 11.87L24.73 11.87L24.94 11.87L24.93 12.41L21.74 12.41L21.75 11.87L22.17 11.87L22.17 11.87Q22.78 11.87 22.78 11.70L22.78 11.70L22.78 11.70Q22.78 11.63 22.65 11.27L22.65 11.27L21.61 8.72L18.36 8.72L17.25 11.18L17.25 11.18Q17.12 11.50 17.12 11.63L17.12 11.63L17.12 11.63Q17.12 11.79 17.21 11.83L17.21 11.83L17.21 11.83Q17.31 11.87 17.69 11.87L17.69 11.87L18.27 11.87L18.27 12.41L15.54 12.41ZM20.04 4.79L18.63 8.10L21.37 8.10L20.04 4.79ZM32.69 3.64L32.68 3.08L34.85 3.08L40.58 10.48L40.58 4.14L40.58 4.14Q40.58 3.81 40.43 3.72L40.43 3.72L40.43 3.72Q40.28 3.64 39.82 3.64L39.82 3.64L39.33 3.64L39.35 3.08L42.33 3.08L42.33 3.64L42.01 3.64L42.01 3.64Q41.55 3.64 41.40 3.75L41.40 3.75L41.40 3.75Q41.25 3.86 41.25 4.25L41.25 4.25L41.25 12.32L41.25 12.47L41.25 12.47Q41.25 12.52 41.23 12.57L41.23 12.57L41.23 12.57Q41.22 12.61 41.19 12.64L41.19 12.64L41.19 12.64Q41.17 12.65 41.12 12.65L41.12 12.65L40.93 12.65L40.87 12.65L40.84 12.65L40.81 12.64L40.81 12.64Q40.78 12.64 40.77 12.63L40.77 12.63L40.77 12.63Q40.76 12.61 40.76 12.60L40.76 12.60L40.76 12.60Q40.76 12.58 40.74 12.57L40.74 12.57L40.74 12.57Q40.71 12.54 40.69 12.50L40.69 12.50L40.69 12.50Q40.67 12.48 40.65 12.45L40.65 12.45L40.65 12.45Q40.63 12.41 40.62 12.40L40.62 12.40L34.51 4.56L34.58 11.22L34.58 11.22Q34.58 11.67 34.75 11.77L34.75 11.77L34.75 11.77Q34.90 11.87 35.62 11.87L35.62 11.87L35.85 11.87L35.85 12.41L32.92 12.41L32.92 11.87L33.34 11.87L33.34 11.87Q33.71 11.87 33.82 11.76L33.82 11.76L33.82 11.76Q33.92 11.66 33.93 11.25L33.93 11.25L33.93 3.80L33.78 3.64L32.69 3.64ZM50.11 3.64L50.07 3.08L53.85 3.08L53.85 3.08Q55.17 3.08 56.04 3.19L56.04 3.19L56.04 3.19Q56.86 3.29 57.55 3.69L57.55 3.69L57.55 3.69Q58.50 4.27 59.01 5.24L59.01 5.24L59.01 5.24Q59.50 6.21 59.50 7.39L59.50 7.39L59.50 7.39Q59.50 8.05 59.36 8.65L59.36 8.65L59.36 8.65Q59.20 9.29 58.81 9.98L58.81 9.98L58.81 9.98Q58.38 10.73 57.82 11.21L57.82 11.21L57.82 11.21Q57.19 11.76 56.22 12.08L56.22 12.08L56.22 12.08Q55.21 12.41 53.94 12.41L53.94 12.41L50.33 12.41L50.31 11.87L50.69 11.87L50.69 11.87Q51.21 11.87 51.31 11.79L51.31 11.79L51.31 11.79Q51.42 11.70 51.42 11.25L51.42 11.25L51.42 4.14L51.42 4.14Q51.42 3.77 51.32 3.71L51.32 3.71L51.32 3.71Q51.21 3.64 50.70 3.64L50.70 3.64L50.11 3.64ZM52.55 4.39L52.55 11.22L52.55 11.22Q52.55 11.67 52.72 11.77L52.72 11.77L52.72 11.77Q52.88 11.87 53.74 11.87L53.74 11.87L53.74 11.87Q54.80 11.87 55.59 11.61L55.59 11.61L55.59 11.61Q56.44 11.35 56.88 10.99L56.88 10.99L56.88 10.99Q57.37 10.58 57.68 10.05L57.68 10.05L57.68 10.05Q57.98 9.52 58.11 8.96L58.11 8.96L58.11 8.96Q58.24 8.41 58.24 7.82L58.24 7.82L58.24 7.82Q58.24 7.03 57.97 6.34L57.97 6.34L57.97 6.34Q57.70 5.65 57.18 5.05L57.18 5.05L57.18 5.05Q56.64 4.46 55.73 4.09L55.73 4.09L55.73 4.09Q54.81 3.73 53.65 3.73L53.65 3.73L53.13 3.73L53.13 3.73Q52.77 3.73 52.66 3.85L52.66 3.85L52.66 3.85Q52.55 3.99 52.55 4.39L52.55 4.39ZM67.44 10.04L67.44 10.04L67.94 9.98L68.12 10.85L68.12 10.85Q68.23 11.33 68.30 11.41L68.30 11.41L68.30 11.41Q68.37 11.49 68.78 11.64L68.78 11.64L68.78 11.64Q69.62 11.95 70.51 11.95L70.51 11.95L70.51 11.95Q71.30 11.95 71.84 11.49L71.84 11.49L71.84 11.49Q72.37 11.04 72.37 10.26L72.37 10.26L72.37 10.26Q72.37 9.65 71.91 9.21L71.91 9.21L71.91 9.21Q71.44 8.76 70.58 8.30L70.58 8.30L70.01 7.98L70.01 7.98Q69.26 7.55 69.03 7.36L69.03 7.36L69.03 7.36Q68.67 7.08 68.36 6.59L68.36 6.59L68.36 6.59Q68.04 6.10 68.04 5.46L68.04 5.46L68.04 5.46Q68.04 4.39 68.89 3.68L68.89 3.68L68.89 3.68Q69.73 2.97 70.83 2.97L70.83 2.97L70.83 2.97Q71.11 2.97 71.46 3.04L71.46 3.04L71.46 3.04Q71.66 3.08 72.00 3.17L72.00 3.17L72.24 3.25L72.24 3.25Q72.33 3.25 72.37 3.16L72.37 3.16L72.37 3.16Q72.43 3.05 72.43 2.98L72.43 2.98L72.44 2.88L72.92 2.85L73.13 5.41L72.63 5.43L72.50 4.18L72.50 4.18Q71.76 3.62 70.59 3.62L70.59 3.62L70.59 3.62Q69.95 3.62 69.45 4.05L69.45 4.05L69.45 4.05Q68.97 4.47 68.97 5.12L68.97 5.12L68.97 5.12Q68.97 5.72 69.42 6.17L69.42 6.17L69.42 6.17Q69.85 6.60 70.72 7.08L70.72 7.08L71.49 7.50L71.49 7.50Q72.44 8.03 72.97 8.59L72.97 8.59L72.97 8.59Q73.51 9.15 73.51 9.92L73.51 9.92L73.51 9.92Q73.51 10.99 72.65 11.76L72.65 11.76L72.65 11.76Q71.78 12.54 70.33 12.54L70.33 12.54L70.33 12.54Q69.77 12.54 69.27 12.41L69.27 12.41L69.27 12.41Q68.76 12.29 68.71 12.29L68.71 12.29L68.71 12.29Q68.46 12.29 68.46 12.58L68.46 12.58L68.47 12.76L67.99 12.80L67.99 12.80Q67.93 12.41 67.44 10.04ZM82.07 8.02L82.07 8.02L82.07 8.02Q82.07 6.86 82.54 5.83L82.54 5.83L82.54 5.83Q83.01 4.85 83.76 4.27L83.76 4.27L83.76 4.27Q84.51 3.69 85.40 3.37L85.40 3.37L85.40 3.37Q86.30 3.05 87.14 3.05L87.14 3.05L87.14 3.05Q88.01 3.05 88.68 3.16L88.68 3.16L88.68 3.16Q89.30 3.26 89.60 3.37L89.60 3.37L89.60 3.37Q89.91 3.48 89.94 3.48L89.94 3.48L89.94 3.48Q90.11 3.48 90.13 3.41L90.13 3.41L90.13 3.41Q90.16 3.33 90.16 3.09L90.16 3.09L90.16 2.97L90.69 2.97L90.69 2.97Q90.73 4.30 90.86 5.64L90.86 5.64L90.36 5.65L90.36 5.65Q90.33 5.40 90.32 5.26L90.32 5.26L90.32 5.26Q90.32 5.20 90.31 5.13L90.31 5.13L90.31 5.13Q90.30 5.07 90.30 5.02L90.30 5.02L90.30 5.02Q90.29 4.98 90.29 4.95L90.29 4.95L90.29 4.95Q90.26 4.84 90.26 4.74L90.26 4.74L90.26 4.74Q90.26 4.68 90.22 4.59L90.22 4.59L90.22 4.59Q90.22 4.57 90.19 4.55L90.19 4.55L90.19 4.55Q90.16 4.52 90.16 4.50L90.16 4.50L90.16 4.50Q90.13 4.44 90.06 4.41L90.06 4.41L90.06 4.41Q90.02 4.38 90.00 4.37L90.00 4.37L90.00 4.37Q89.97 4.36 89.94 4.35L89.94 4.35L89.94 4.35Q89.93 4.35 89.90 4.33L89.90 4.33L89.90 4.33Q89.88 4.31 89.84 4.29L89.84 4.29L89.84 4.29Q89.80 4.27 89.76 4.25L89.76 4.25L89.76 4.25Q89.53 4.16 89.50 4.14L89.50 4.14L89.50 4.14Q89.15 3.96 88.51 3.83L88.51 3.83L88.51 3.83Q87.84 3.71 87.18 3.71L87.18 3.71L87.18 3.71Q85.46 3.71 84.36 4.84L84.36 4.84L84.36 4.84Q83.25 5.99 83.26 7.62L83.26 7.62L83.26 7.62Q83.26 9.35 84.48 10.69L84.48 10.69L84.48 10.69Q85.68 12.02 87.50 12.02L87.50 12.02L87.50 12.02Q88.50 12.02 89.45 11.49L89.45 11.49L89.45 11.49Q90.40 10.94 90.43 10.58L90.43 10.58L90.47 9.41L90.96 9.41L90.88 11.45L90.88 11.45Q90.81 11.49 90.68 11.57L90.68 11.57L90.68 11.57Q90.62 11.60 90.16 11.85L90.16 11.85L90.16 11.85Q89.78 12.05 89.34 12.23L89.34 12.23L89.34 12.23Q88.98 12.39 88.33 12.51L88.33 12.51L88.33 12.51Q87.72 12.63 87.15 12.64L87.15 12.64L87.15 12.64Q84.77 12.64 83.41 11.39L83.41 11.39L83.41 11.39Q82.07 10.14 82.07 8.02ZM99.00 12.41L98.99 11.87L99.16 11.87L99.16 11.87Q99.55 11.87 99.68 11.73L99.68 11.73L99.68 11.73Q99.80 11.57 100.14 10.83L100.14 10.83L101.05 8.82L101.62 7.53L101.62 7.53Q101.89 6.97 101.93 6.86L101.93 6.86L101.93 6.86Q102.00 6.70 102.05 6.60L102.05 6.60L102.05 6.60Q102.10 6.51 102.12 6.45L102.12 6.45L102.21 6.21L103.64 2.74L103.93 2.74L103.93 2.74Q104.79 4.98 106.98 10.25L106.98 10.25L106.98 10.25Q107.43 11.34 107.62 11.64L107.62 11.64L107.62 11.64Q107.75 11.87 108.19 11.87L108.19 11.87L108.40 11.87L108.39 12.41L105.20 12.41L105.21 11.87L105.63 11.87L105.63 11.87Q106.24 11.87 106.24 11.70L106.24 11.70L106.24 11.70Q106.24 11.63 106.11 11.27L106.11 11.27L105.07 8.72L101.82 8.72L100.71 11.18L100.71 11.18Q100.58 11.50 100.58 11.63L100.58 11.63L100.58 11.63Q100.58 11.79 100.67 11.83L100.67 11.83L100.67 11.83Q100.77 11.87 101.15 11.87L101.15 11.87L101.73 11.87L101.73 12.41L99.00 12.41ZM103.50 4.79L102.09 8.10L104.83 8.10L103.50 4.79ZM119.86 12.41L116.14 12.41L116.14 11.87L116.57 11.87L116.57 11.87Q116.95 11.87 117.00 11.81L117.00 11.81L117.00 11.81Q117.07 11.74 117.08 11.46L117.08 11.46L117.08 4.14L117.08 4.14Q117.08 3.81 116.99 3.72L116.99 3.72L116.99 3.72Q116.91 3.64 116.55 3.64L116.55 3.64L116.18 3.64L116.19 3.08L119.08 3.08L119.08 3.08Q120.22 3.08 120.87 3.19L120.87 3.19L120.87 3.19Q121.47 3.28 121.95 3.68L121.95 3.68L121.95 3.68Q123.14 4.64 123.14 6.19L123.14 6.19L123.14 6.19Q123.14 7.23 122.37 7.98L122.37 7.98L122.37 7.98Q121.59 8.74 120.18 8.73L120.18 8.73L120.18 8.73Q120.01 8.73 119.59 8.70L119.59 8.70L119.59 8.70Q119.49 8.69 119.06 8.62L119.06 8.62L119.06 8.62Q118.73 8.55 118.63 8.54L118.63 8.54L118.63 8.54Q118.34 8.47 118.32 8.46L118.32 8.46L118.21 8.44L118.21 11.46L118.21 11.46Q118.21 11.74 118.34 11.81L118.34 11.81L118.34 11.81Q118.45 11.87 119.16 11.87L119.16 11.87L119.86 11.87L119.86 12.41ZM118.21 4.28L118.21 8.02L118.21 8.02Q118.56 8.29 119.53 8.29L119.53 8.29L119.53 8.29Q120.66 8.29 121.24 7.75L121.24 7.75L121.24 7.75Q121.82 7.21 121.82 6.16L121.82 6.16L121.82 6.16Q121.82 4.98 120.91 4.31L120.91 4.31L120.91 4.31Q120.02 3.64 118.63 3.64L118.63 3.64L118.63 3.64Q118.38 3.64 118.30 3.75L118.30 3.75L118.30 3.75Q118.21 3.84 118.21 4.28L118.21 4.28ZM131.13 3.64L131.11 3.08L138.33 3.08L138.33 3.08Q138.34 4.14 138.39 5.28L138.39 5.28L137.85 5.30L137.85 5.30Q137.83 4.66 137.78 4.25L137.78 4.25L137.78 4.25Q137.74 3.89 137.68 3.80L137.68 3.80L137.68 3.80Q137.63 3.71 137.51 3.69L137.51 3.69L137.51 3.69Q137.42 3.68 136.83 3.68L136.83 3.68L134.45 3.68L134.45 3.68Q133.90 3.68 133.76 3.77L133.76 3.77L133.76 3.77Q133.64 3.86 133.64 4.33L133.64 4.33L133.64 6.28L133.64 6.28Q133.64 6.69 133.69 6.76L133.69 6.76L133.69 6.76Q133.76 6.84 134.10 6.84L134.10 6.84L136.21 6.84L136.21 6.84Q136.58 6.84 136.66 6.73L136.66 6.73L136.66 6.73Q136.74 6.63 136.75 6.14L136.75 6.14L136.75 5.61L137.26 5.63L137.26 8.97L136.75 8.97L136.75 8.24L136.75 8.24Q136.75 7.66 136.67 7.57L136.67 7.57L136.67 7.57Q136.59 7.46 136.24 7.46L136.24 7.46L134.14 7.46L134.14 7.46Q133.81 7.46 133.72 7.54L133.72 7.54L133.72 7.54Q133.64 7.63 133.64 7.89L133.64 7.89L133.64 11.20L133.64 11.20Q133.64 11.57 133.72 11.67L133.72 11.67L133.72 11.67Q133.81 11.77 134.08 11.77L134.08 11.77L134.08 11.77Q137.00 11.75 137.53 11.69L137.53 11.69L137.53 11.69Q138.04 11.63 138.13 11.38L138.13 11.38L138.13 11.36L138.14 11.35L138.37 10.17L138.84 10.25L138.50 12.41L131.39 12.41L131.39 11.87L131.76 11.87L131.76 11.87Q132.32 11.87 132.41 11.80L132.41 11.80L132.41 11.80Q132.50 11.72 132.50 11.33L132.50 11.33L132.50 4.24L132.50 4.24Q132.50 3.82 132.35 3.73L132.35 3.73L132.35 3.73Q132.18 3.64 131.52 3.64L131.52 3.64L131.13 3.64ZM156.78 3.64L156.29 3.64L156.30 3.08L159.89 3.08L159.89 3.64L159.26 3.64L159.26 3.64Q158.88 3.64 158.77 3.72L158.77 3.72L158.77 3.72Q158.66 3.80 158.66 4.16L158.66 4.16L158.66 11.22L158.66 11.22Q158.66 11.57 158.74 11.67L158.74 11.67L158.74 11.67Q158.83 11.77 159.12 11.77L159.12 11.77L159.12 11.77Q161.99 11.74 162.65 11.63L162.65 11.63L162.65 11.63Q162.86 11.61 162.94 11.39L162.94 11.39L162.94 11.39Q163.02 11.17 163.22 10.05L163.22 10.05L163.71 10.08L163.25 12.41L156.49 12.41L156.47 11.87L156.86 11.87L156.86 11.87Q157.37 11.87 157.44 11.80L157.44 11.80L157.44 11.80Q157.52 11.72 157.53 11.33L157.53 11.33L157.53 4.09L157.53 4.09Q157.53 3.80 157.37 3.72L157.37 3.72L157.37 3.72Q157.22 3.64 156.78 3.64L156.78 3.64ZM172.03 3.64L171.45 3.64L171.46 3.08L174.97 3.08L174.97 3.64L174.74 3.64L174.74 3.64Q174.19 3.64 174.02 3.73L174.02 3.73L174.02 3.73Q173.89 3.81 173.89 4.28L173.89 4.28L173.89 11.22L173.89 11.22Q173.89 11.68 174.00 11.77L174.00 11.77L174.00 11.77Q174.10 11.87 174.64 11.87L174.64 11.87L175.18 11.87L175.20 12.41L171.62 12.41L171.60 11.87L171.96 11.87L171.96 11.87Q172.53 11.87 172.64 11.77L172.64 11.77L172.64 11.77Q172.75 11.67 172.75 11.25L172.75 11.25L172.75 4.14L172.75 4.14Q172.75 3.77 172.65 3.71L172.65 3.71L172.65 3.71Q172.54 3.64 172.03 3.64L172.03 3.64ZM183.32 8.24L183.32 8.24L183.32 8.24Q183.32 6.92 183.93 5.72L183.93 5.72L183.93 5.72Q184.55 4.52 185.78 3.72L185.78 3.72L185.78 3.72Q187.02 2.92 188.64 2.92L188.64 2.92L188.64 2.92Q189.91 2.92 191.50 3.57L191.50 3.57L191.50 2.86L192.06 2.86L192.15 5.92L191.60 5.93L191.51 4.48L191.51 4.48Q191.43 4.41 191.15 4.24L191.15 4.24L191.15 4.24Q190.90 4.07 190.15 3.83L190.15 3.83L190.15 3.83Q189.42 3.60 188.52 3.60L188.52 3.60L188.52 3.60Q187.54 3.60 186.77 3.93L186.77 3.93L186.77 3.93Q186.01 4.27 185.54 4.83L185.54 4.83L185.54 4.83Q185.08 5.39 184.83 6.08L184.83 6.08L184.83 6.08Q184.58 6.78 184.58 7.57L184.58 7.57L184.58 7.57Q184.58 9.33 185.70 10.69L185.70 10.69L185.70 10.69Q186.82 12.05 188.68 12.05L188.68 12.05L188.68 12.05Q189.38 12.05 190.01 11.85L190.01 11.85L190.01 11.85Q190.64 11.66 190.86 11.48L190.86 11.48L191.10 11.28L191.10 8.78L189.44 8.78L189.42 8.23L193.29 8.23L193.30 8.78L192.23 8.78L192.23 11.64L191.45 11.98L191.45 11.98Q190.75 12.30 190.52 12.39L190.52 12.39L190.52 12.39Q190.27 12.48 189.63 12.61L189.63 12.61L189.63 12.61Q189.02 12.74 188.41 12.74L188.41 12.74L188.41 12.74Q187.11 12.74 186.14 12.37L186.14 12.37L186.14 12.37Q185.15 12.00 184.54 11.36L184.54 11.36L184.54 11.36Q183.95 10.76 183.63 9.94L183.63 9.94L183.63 9.94Q183.32 9.15 183.32 8.24ZM201.41 3.64L201.04 3.64L201.04 3.08L204.52 3.08L204.52 3.64L204.16 3.64L204.16 3.64Q203.66 3.64 203.51 3.75L203.51 3.75L203.51 3.75Q203.37 3.84 203.36 4.25L203.36 4.25L203.36 6.91L207.92 6.91L207.92 4.14L207.92 4.14Q207.92 3.77 207.82 3.71L207.82 3.71L207.82 3.71Q207.71 3.64 207.18 3.64L207.18 3.64L206.60 3.64L206.58 3.08L210.14 3.08L210.14 3.64L209.75 3.64L209.75 3.64Q209.27 3.64 209.16 3.74L209.16 3.74L209.16 3.74Q209.05 3.83 209.05 4.22L209.05 4.22L209.05 11.29L209.05 11.29Q209.05 11.67 209.19 11.77L209.19 11.77L209.19 11.77Q209.34 11.87 209.89 11.87L209.89 11.87L210.36 11.87L210.35 12.41L206.86 12.41L206.85 11.87L207.26 11.87L207.26 11.87Q207.72 11.87 207.82 11.77L207.82 11.77L207.82 11.77Q207.92 11.67 207.92 11.25L207.92 11.25L207.92 7.58L203.36 7.58L203.36 11.25L203.36 11.25Q203.36 11.67 203.52 11.77L203.52 11.77L203.52 11.77Q203.67 11.87 204.37 11.87L204.37 11.87L204.78 11.87L204.75 12.41L201.17 12.41L201.15 11.87L201.52 11.87L201.52 11.87Q202.06 11.87 202.13 11.80L202.13 11.80L202.13 11.80Q202.23 11.70 202.23 11.25L202.23 11.25L202.23 4.09L202.23 4.09Q202.23 3.76 202.09 3.71L202.09 3.71L202.09 3.71Q201.92 3.64 201.41 3.64L201.41 3.64ZM218.38 5.35L217.88 5.33L217.88 5.33Q218.00 4.17 218.09 3.08L218.09 3.08L226.17 3.08L226.17 3.08Q226.08 4.13 226.06 4.53L226.06 4.53L226.06 4.53Q226.02 5.26 226.00 5.32L226.00 5.32L225.50 5.30L225.50 5.30Q225.58 4.34 225.58 4.16L225.58 4.16L225.58 4.16Q225.58 3.88 225.44 3.79L225.44 3.79L225.44 3.79Q225.26 3.69 224.86 3.69L224.86 3.69L223.25 3.69L223.25 3.69Q222.75 3.69 222.63 3.79L222.63 3.79L222.63 3.79Q222.53 3.87 222.52 4.36L222.52 4.36L222.52 11.22L222.52 11.22Q222.52 11.66 222.67 11.76L222.67 11.76L222.67 11.76Q222.82 11.87 223.34 11.87L223.34 11.87L223.90 11.87L223.91 12.41L220.22 12.40L220.22 11.87L220.44 11.87L220.44 11.87Q221.11 11.87 221.25 11.79L221.25 11.79L221.25 11.79Q221.40 11.70 221.40 11.28L221.40 11.28L221.40 4.48L221.40 4.48Q221.40 3.92 221.30 3.80L221.30 3.80L221.30 3.80Q221.20 3.69 220.77 3.69L220.77 3.69L219.30 3.69L219.30 3.69Q219.12 3.69 219.05 3.71L219.05 3.71L219.05 3.71Q218.98 3.72 218.87 3.72L218.87 3.72L218.87 3.72Q218.85 3.72 218.73 3.79L218.73 3.79L218.73 3.79Q218.65 3.84 218.62 3.86L218.62 3.86L218.62 3.86Q218.59 3.88 218.55 3.99L218.55 3.99L218.55 3.99Q218.52 4.05 218.50 4.14L218.50 4.14L218.50 4.14Q218.47 4.21 218.45 4.36L218.45 4.36L218.45 4.36Q218.42 4.59 218.42 4.61L218.42 4.61L218.42 4.61Q218.42 4.80 218.41 4.95L218.41 4.95L218.41 4.95Q218.41 5.02 218.40 5.15L218.40 5.15L218.40 5.15Q218.39 5.29 218.38 5.35L218.38 5.35ZM234.49 3.64L233.91 3.64L233.92 3.08L237.43 3.08L237.43 3.64L237.20 3.64L237.20 3.64Q236.65 3.64 236.48 3.73L236.48 3.73L236.48 3.73Q236.35 3.81 236.35 4.28L236.35 4.28L236.35 11.22L236.35 11.22Q236.35 11.68 236.46 11.77L236.46 11.77L236.46 11.77Q236.56 11.87 237.10 11.87L237.10 11.87L237.64 11.87L237.66 12.41L234.08 12.41L234.06 11.87L234.42 11.87L234.42 11.87Q234.99 11.87 235.10 11.77L235.10 11.77L235.10 11.77Q235.21 11.67 235.21 11.25L235.21 11.25L235.21 4.14L235.21 4.14Q235.21 3.77 235.11 3.71L235.11 3.71L235.11 3.71Q235.00 3.64 234.49 3.64L234.49 3.64ZM245.41 3.64L245.40 3.08L247.57 3.08L253.31 10.48L253.31 4.14L253.31 4.14Q253.31 3.81 253.15 3.72L253.15 3.72L253.15 3.72Q253.00 3.64 252.54 3.64L252.54 3.64L252.05 3.64L252.08 3.08L255.06 3.08L255.06 3.64L254.73 3.64L254.73 3.64Q254.27 3.64 254.12 3.75L254.12 3.75L254.12 3.75Q253.97 3.86 253.97 4.25L253.97 4.25L253.97 12.32L253.97 12.47L253.97 12.47Q253.97 12.52 253.96 12.57L253.96 12.57L253.96 12.57Q253.94 12.61 253.91 12.64L253.91 12.64L253.91 12.64Q253.89 12.65 253.84 12.65L253.84 12.65L253.65 12.65L253.59 12.65L253.56 12.65L253.53 12.64L253.53 12.64Q253.50 12.64 253.49 12.63L253.49 12.63L253.49 12.63Q253.48 12.61 253.48 12.60L253.48 12.60L253.48 12.60Q253.48 12.58 253.46 12.57L253.46 12.57L253.46 12.57Q253.44 12.54 253.41 12.50L253.41 12.50L253.41 12.50Q253.39 12.48 253.37 12.45L253.37 12.45L253.37 12.45Q253.35 12.41 253.34 12.40L253.34 12.40L247.24 4.56L247.30 11.22L247.30 11.22Q247.30 11.67 247.47 11.77L247.47 11.77L247.47 11.77Q247.63 11.87 248.34 11.87L248.34 11.87L248.58 11.87L248.58 12.41L245.64 12.41L245.64 11.87L246.06 11.87L246.06 11.87Q246.44 11.87 246.54 11.76L246.54 11.76L246.54 11.76Q246.64 11.66 246.65 11.25L246.65 11.25L246.65 3.80L246.50 3.64L245.41 3.64ZM263.18 8.24L263.18 8.24L263.18 8.24Q263.18 6.92 263.79 5.72L263.79 5.72L263.79 5.72Q264.41 4.52 265.64 3.72L265.64 3.72L265.64 3.72Q266.88 2.92 268.50 2.92L268.50 2.92L268.50 2.92Q269.77 2.92 271.35 3.57L271.35 3.57L271.35 2.86L271.91 2.86L272.01 5.92L271.46 5.93L271.37 4.48L271.37 4.48Q271.28 4.41 271.01 4.24L271.01 4.24L271.01 4.24Q270.76 4.07 270.01 3.83L270.01 3.83L270.01 3.83Q269.28 3.60 268.38 3.60L268.38 3.60L268.38 3.60Q267.40 3.60 266.63 3.93L266.63 3.93L266.63 3.93Q265.86 4.27 265.40 4.83L265.40 4.83L265.40 4.83Q264.93 5.39 264.69 6.08L264.69 6.08L264.69 6.08Q264.43 6.78 264.43 7.57L264.43 7.57L264.43 7.57Q264.43 9.33 265.56 10.69L265.56 10.69L265.56 10.69Q266.68 12.05 268.54 12.05L268.54 12.05L268.54 12.05Q269.23 12.05 269.87 11.85L269.87 11.85L269.87 11.85Q270.50 11.66 270.72 11.48L270.72 11.48L270.96 11.28L270.96 8.78L269.29 8.78L269.28 8.23L273.14 8.23L273.16 8.78L272.09 8.78L272.09 11.64L271.30 11.98L271.30 11.98Q270.61 12.30 270.38 12.39L270.38 12.39L270.38 12.39Q270.13 12.48 269.49 12.61L269.49 12.61L269.49 12.61Q268.88 12.74 268.27 12.74L268.27 12.74L268.27 12.74Q266.97 12.74 266 12.37L266 12.37L266 12.37Q265.01 12.00 264.39 11.36L264.39 11.36L264.39 11.36Q263.81 10.76 263.48 9.94L263.48 9.94L263.48 9.94Q263.18 9.15 263.18 8.24Z"></path></g></svg>